<?xml version="1.0" encoding="UTF-8" standalone="no"?>
<!-- Created with Inkscape (http://www.inkscape.org/) -->

<svg
   xmlns:dc="http://purl.org/dc/elements/1.1/"
   xmlns:cc="http://creativecommons.org/ns#"
   xmlns:rdf="http://www.w3.org/1999/02/22-rdf-syntax-ns#"
   xmlns:svg="http://www.w3.org/2000/svg"
   xmlns="http://www.w3.org/2000/svg"
   xmlns:sodipodi="http://sodipodi.sourceforge.net/DTD/sodipodi-0.dtd"
   xmlns:inkscape="http://www.inkscape.org/namespaces/inkscape"
   width="48"
   height="48"
   id="svg2"
   version="1.1"
   inkscape:version="0.48.4 r9939"
   sodipodi:docname="ic_stat_notify_field_destroyed.svg">
  <defs
     id="defs4" />
  <sodipodi:namedview
     id="base"
     pagecolor="#000000"
     bordercolor="#666666"
     borderopacity="1.0"
     inkscape:pageopacity="1"
     inkscape:pageshadow="2"
     inkscape:zoom="0.5"
     inkscape:cx="24"
     inkscape:cy="24"
     inkscape:document-units="px"
     inkscape:current-layer="layer1"
     showgrid="false"
     inkscape:snap-bbox="true"
     inkscape:window-width="1920"
     inkscape:window-height="1178"
     inkscape:window-x="0"
     inkscape:window-y="0"
     inkscape:window-maximized="1">
    <inkscape:grid
       type="xygrid"
       id="grid2985"
       empspacing="2"
       visible="true"
       enabled="true"
       snapvisiblegridlinesonly="true"
       spacingx="1px"
       empcolor="#0000ff"
       empopacity="0.59607843"
       color="#0000ff"
       opacity="0.36078431" />
  </sodipodi:namedview>
  <metadata
     id="metadata7">
    <rdf:RDF>
      <cc:Work
         rdf:about="">
        <dc:format>image/svg+xml</dc:format>
        <dc:type
           rdf:resource="http://purl.org/dc/dcmitype/StillImage" />
        <dc:title></dc:title>
      </cc:Work>
    </rdf:RDF>
  </metadata>
  <g
     inkscape:label="Icon"
     inkscape:groupmode="layer"
     id="layer1"
     transform="translate(0,-1004.3622)">
    <path
       sodipodi:type="arc"
       style="fill:#ffffff;fill-opacity:1;stroke:none"
       id="path3830"
       sodipodi:cx="37.5"
       sodipodi:cy="8.5"
       sodipodi:rx="4.5"
       sodipodi:ry="4.5"
       d="m 42,8.5 a 4.5,4.5 0 1 1 -9,0 4.5,4.5 0 1 1 9,0 z"
       transform="matrix(1.5555561,0,0,1.5555561,-23.333353,1008.14)" />
    <path
       transform="matrix(1.5555557,0,0,1.5555557,-41.333338,1028.14)"
       d="m 42,8.5 a 4.5,4.5 0 1 1 -9,0 4.5,4.5 0 1 1 9,0 z"
       sodipodi:ry="4.5"
       sodipodi:rx="4.5"
       sodipodi:cy="8.5"
       sodipodi:cx="37.5"
       id="path3832"
       style="fill:#ffffff;fill-opacity:1;stroke:none"
       sodipodi:type="arc" />
    <path
       style="fill:#ffffff;fill-opacity:0.66666667;stroke:#ffffff;stroke-width:4;stroke-miterlimit:4;stroke-opacity:1;stroke-dasharray:none"
       d="M 17,37 13,13 35,17 z"
       id="path3834"
       inkscape:connector-curvature="0"
       sodipodi:nodetypes="cccc"
       transform="translate(0,1004.3622)" />
    <path
       transform="matrix(1.5555561,0,0,1.5555561,-45.333356,1004.14)"
       d="m 42,8.5 a 4.5,4.5 0 1 1 -9,0 4.5,4.5 0 1 1 9,0 z"
       sodipodi:ry="4.5"
       sodipodi:rx="4.5"
       sodipodi:cy="8.5"
       sodipodi:cx="37.5"
       id="path3855"
       style="fill:#ffffff;fill-opacity:1;stroke:none"
       sodipodi:type="arc" />
  </g>
  <g
     inkscape:groupmode="layer"
     id="layer2"
     inkscape:label="Cross">
    <path
       style="font-size:medium;font-style:normal;font-variant:normal;font-weight:normal;font-stretch:normal;text-indent:0;text-align:start;text-decoration:none;line-height:normal;letter-spacing:normal;word-spacing:normal;text-transform:none;direction:ltr;block-progression:tb;writing-mode:lr-tb;text-anchor:start;baseline-shift:baseline;color:#000000;fill:#ffffff;fill-opacity:1;stroke:none;stroke-width:4;marker:none;visibility:visible;display:inline;overflow:visible;enable-background:accumulate;font-family:Sans;-inkscape-font-specification:Sans"
       d="m 29.78125,27.96875 a 2.0002,2.0002 0 0 0 -1.1875,3.4375 L 33.1875,36 28.59375,40.5625 a 2.0002,2.0002 0 1 0 2.8125,2.84375 L 36,38.8125 l 4.59375,4.59375 a 2.0002,2.0002 0 1 0 2.8125,-2.84375 L 38.8125,36 43.40625,31.40625 A 2.0002,2.0002 0 0 0 41.75,27.96875 2.0002,2.0002 0 0 0 40.59375,28.5625 L 36,33.15625 31.40625,28.5625 a 2.0002,2.0002 0 0 0 -1.625,-0.59375 z"
       id="path2989"
       inkscape:connector-curvature="0" />
  </g>
  <g
     inkscape:groupmode="layer"
     id="layer3"
     inkscape:label="Cross base"
     style="display:none">
    <path
       transform="translate(0,-1004.3622)"
       sodipodi:type="inkscape:offset"
       inkscape:radius="1.4421186"
       inkscape:original="M 29.96875 1032.3125 A 2.0002 2.0002 0 0 0 29.78125 1032.3438 A 2.0002 2.0002 0 0 0 28.59375 1035.7812 L 33.1875 1040.375 L 28.59375 1044.9375 A 2.0002 2.0002 0 1 0 31.40625 1047.7812 L 36 1043.1875 L 40.59375 1047.7812 A 2.0002 2.0002 0 1 0 43.40625 1044.9375 L 38.8125 1040.375 L 43.40625 1035.7812 A 2.0002 2.0002 0 0 0 41.75 1032.3438 A 2.0002 2.0002 0 0 0 40.59375 1032.9375 L 36 1037.5312 L 31.40625 1032.9375 A 2.0002 2.0002 0 0 0 29.96875 1032.3125 z "
       style="font-size:medium;font-style:normal;font-variant:normal;font-weight:normal;font-stretch:normal;text-indent:0;text-align:start;text-decoration:none;line-height:normal;letter-spacing:normal;word-spacing:normal;text-transform:none;direction:ltr;block-progression:tb;writing-mode:lr-tb;text-anchor:start;baseline-shift:baseline;color:#000000;fill:#ff0000;fill-opacity:1;stroke:none;stroke-width:4;marker:none;visibility:visible;display:inline;overflow:visible;enable-background:accumulate;font-family:Sans;-inkscape-font-specification:Sans"
       id="path3781"
       d="m 29.8125,1030.875 c -0.008,9e-4 -0.08712,0.02 -0.15625,0.031 -0.01,0 -0.120581,0.022 -0.1875,0.031 -0.02185,0 -0.05928,-5e-4 -0.0625,0 -0.01308,0 -0.237112,0.059 -0.25,0.062 -0.01289,0 -0.237369,0.058 -0.25,0.062 -0.01263,0 -0.206441,0.089 -0.21875,0.094 -0.01231,0.01 -0.206825,0.088 -0.21875,0.094 -0.01193,0.01 -0.207269,0.087 -0.21875,0.094 -0.01148,0.01 -0.207772,0.1487 -0.21875,0.1562 -0.01098,0.01 -0.177081,0.1168 -0.1875,0.125 -0.01042,0.01 -0.177693,0.1473 -0.1875,0.1562 -0.0098,0.01 -0.178355,0.1779 -0.1875,0.1876 -0.0091,0.01 -0.147813,0.1772 -0.15625,0.1874 -0.0084,0.01 -0.148564,0.1767 -0.15625,0.1876 -0.0077,0.011 -0.118104,0.1761 -0.125,0.1874 -0.0069,0.011 -0.118929,0.207 -0.125,0.2188 -0.0061,0.012 -0.08854,0.2066 -0.09375,0.2188 -0.0052,0.012 -0.08942,0.2374 -0.09375,0.25 -0.0043,0.012 -0.05907,0.2059 -0.0625,0.2187 -0.0034,0.013 -0.05999,0.237 -0.0625,0.25 -0.0025,0.013 -0.02968,0.2368 -0.03125,0.25 -0.0016,0.013 -0.03062,0.2055 -0.03125,0.2187 -6.28e-4,0.013 -3.18e-4,0.2368 0,0.25 3.18e-4,0.013 0.02999,0.2368 0.03125,0.25 0.0013,0.013 0.02905,0.237 0.03125,0.25 0.0022,0.013 0.02812,0.2372 0.03125,0.25 0.0031,0.013 0.05846,0.2062 0.0625,0.2188 0.004,0.013 0.08882,0.2377 0.09375,0.25 0.0049,0.012 0.08796,0.2068 0.09375,0.2188 0.0058,0.012 0.118371,0.2072 0.125,0.2187 0.0066,0.012 0.117569,0.1765 0.125,0.1875 0.0074,0.011 0.148055,0.2083 0.15625,0.2188 0.0082,0.01 0.147332,0.1776 0.15625,0.1874 0.0089,0.01 0.146655,0.1471 0.15625,0.1563 l 3.53125,3.5625 -3.53125,3.5312 -0.03125,0 c -0.0028,0 0.0044,0.027 0,0.031 -0.05284,0.055 -0.177148,0.1755 -0.1875,0.1875 -0.01208,0.014 -0.208123,0.2661 -0.21875,0.2812 -0.01063,0.015 -0.178428,0.2652 -0.1875,0.2813 -0.0091,0.016 -0.148823,0.2956 -0.15625,0.3125 -0.0074,0.017 -0.119291,0.2949 -0.125,0.3125 -0.0057,0.018 -0.08982,0.3257 -0.09375,0.3437 -0.0039,0.018 -0.02913,0.3254 -0.03125,0.3438 -0.0021,0.018 -0.03096,0.3253 -0.03125,0.3438 -2.87e-4,0.018 -0.0016,0.3253 0,0.3437 0.0016,0.018 0.05913,0.2943 0.0625,0.3125 0.0034,0.018 0.05734,0.326 0.0625,0.3438 0.0052,0.018 0.118102,0.2953 0.125,0.3124 0.0069,0.017 0.116433,0.2962 0.125,0.3126 0.0086,0.016 0.177348,0.297 0.1875,0.3124 0.01015,0.016 0.175863,0.2669 0.1875,0.2813 0.01164,0.014 0.236994,0.2368 0.25,0.25 0.01301,0.013 0.235753,0.207 0.25,0.2187 0.01425,0.012 0.265902,0.2085 0.28125,0.2188 0.01535,0.01 0.264953,0.1475 0.28125,0.1562 0.0163,0.01 0.295416,0.1492 0.3125,0.1563 0.01708,0.01 0.294797,0.1196 0.3125,0.125 0.0177,0.01 0.325602,0.059 0.34375,0.062 0.01815,0 0.325337,0.061 0.34375,0.062 0.01841,0 0.325254,0.031 0.34375,0.031 0.0185,-1e-4 0.325354,-0.029 0.34375,-0.031 0.0184,-0 0.294385,-0.059 0.3125,-0.062 0.01812,-0 0.326095,-0.057 0.34375,-0.062 0.01766,-0.01 0.29548,-0.1178 0.3125,-0.125 0.01702,-0.01 0.296283,-0.1474 0.3125,-0.1563 0.01622,-0.01 0.265996,-0.177 0.28125,-0.1874 0.01525,-0.011 0.267109,-0.1756 0.28125,-0.1876 0.01326,-0.011 0.214802,-0.1849 0.25,-0.2187 l 0,-0.031 3.5625,-3.5312 3.5625,3.5312 c 0.01289,0.013 0.235859,0.2381 0.25,0.25 0.01414,0.012 0.265996,0.1771 0.28125,0.1876 0.01525,0.01 0.265033,0.1786 0.28125,0.1874 0.01622,0.01 0.29548,0.1491 0.3125,0.1563 0.01702,0.01 0.294845,0.1195 0.3125,0.125 0.01765,0.01 0.325635,0.059 0.34375,0.062 0.01812,0 0.294104,0.061 0.3125,0.062 0.0184,0 0.325254,0.031 0.34375,0.031 0.0185,0 0.325337,-0.03 0.34375,-0.031 0.01841,-0 0.325602,-0.059 0.34375,-0.062 0.01815,-0 0.326047,-0.057 0.34375,-0.062 0.0177,-0.01 0.295416,-0.1179 0.3125,-0.125 0.01708,-0.01 0.296203,-0.1475 0.3125,-0.1563 0.0163,-0.01 0.265902,-0.1459 0.28125,-0.1562 0.01535,-0.01 0.267003,-0.207 0.28125,-0.2188 0.01425,-0.012 0.236994,-0.2055 0.25,-0.2187 0.01301,-0.013 0.238363,-0.2356 0.25,-0.25 0.01164,-0.014 0.177348,-0.2658 0.1875,-0.2813 0.01015,-0.015 0.178933,-0.2961 0.1875,-0.3124 0.0086,-0.016 0.118102,-0.2954 0.125,-0.3126 0.0069,-0.017 0.11984,-0.2947 0.125,-0.3124 0.0052,-0.018 0.05913,-0.3256 0.0625,-0.3438 0.0034,-0.018 0.06095,-0.2941 0.0625,-0.3125 0.0016,-0.018 2.87e-4,-0.3253 0,-0.3437 -2.87e-4,-0.019 -0.02913,-0.3254 -0.03125,-0.3438 -0.0021,-0.018 -0.02732,-0.3257 -0.03125,-0.3438 -0.0039,-0.018 -0.08804,-0.3261 -0.09375,-0.3437 -0.0057,-0.018 -0.117573,-0.2956 -0.125,-0.3125 -0.0074,-0.017 -0.147178,-0.2964 -0.15625,-0.3125 -0.0091,-0.016 -0.176873,-0.2661 -0.1875,-0.2813 -0.01063,-0.015 -0.206673,-0.2672 -0.21875,-0.2812 -0.01035,-0.012 -0.134657,-0.1329 -0.1875,-0.1875 -0.0044,-0 0.0028,-0.028 0,-0.031 l -0.03125,0 -3.53125,-3.5312 3.53125,-3.5312 c 0.0016,-0 0.02329,-0.023 0.03125,-0.031 0.04409,-0.044 0.147868,-0.1783 0.15625,-0.1875 0.0099,-0.011 0.147246,-0.1759 0.15625,-0.1875 0.009,-0.012 0.148194,-0.2064 0.15625,-0.2187 0.0081,-0.012 0.149192,-0.2371 0.15625,-0.25 0.0071,-0.013 0.118984,-0.2366 0.125,-0.25 0.006,-0.014 0.08881,-0.2362 0.09375,-0.25 0.0049,-0.014 0.08993,-0.2358 0.09375,-0.25 0.0038,-0.014 0.02856,-0.2668 0.03125,-0.2813 0.0027,-0.014 0.06096,-0.2354 0.0625,-0.25 0.0015,-0.015 -3.77e-4,-0.2665 0,-0.2813 3.77e-4,-0.015 7.87e-4,-0.2665 0,-0.2812 -7.87e-4,-0.015 -0.02931,-0.2354 -0.03125,-0.25 -0.0019,-0.015 -0.02816,-0.2669 -0.03125,-0.2812 -0.0031,-0.014 -0.05828,-0.236 -0.0625,-0.25 -0.0042,-0.014 -0.08843,-0.2363 -0.09375,-0.25 -0.0053,-0.014 -0.118612,-0.2368 -0.125,-0.25 -0.0064,-0.013 -0.117585,-0.2373 -0.125,-0.25 -0.0074,-0.013 -0.116604,-0.238 -0.125,-0.25 -0.0084,-0.012 -0.178175,-0.1762 -0.1875,-0.1876 -0.0093,-0.011 -0.146054,-0.2081 -0.15625,-0.2187 -0.0102,-0.011 -0.207748,-0.1777 -0.21875,-0.1875 -0.011,-0.01 -0.17576,-0.1786 -0.1875,-0.1875 -0.01174,-0.01 -0.237596,-0.1483 -0.25,-0.1563 -0.0124,-0.01 -0.205759,-0.118 -0.21875,-0.125 -0.01299,-0.01 -0.236503,-0.1191 -0.25,-0.125 -0.0135,-0.01 -0.236082,-0.089 -0.25,-0.094 -0.01392,-0 -0.235748,-0.059 -0.25,-0.062 -0.01425,-0 -0.266753,-0.06 -0.28125,-0.062 -0.0145,-0 -0.266599,-0.03 -0.28125,-0.031 -0.01465,-0 -0.235286,-0.031 -0.25,-0.031 -0.01471,-2e-4 -0.266565,-10e-4 -0.28125,0 -0.01469,10e-4 -0.266687,0.029 -0.28125,0.031 -0.01523,0 -0.266252,0.059 -0.28125,0.063 -0.015,0 -0.235339,0.058 -0.25,0.062 -0.01466,0 -0.267025,0.1192 -0.28125,0.125 -0.01423,0.01 -0.236309,0.087 -0.25,0.094 -0.01369,0.01 -0.236937,0.1481 -0.25,0.1562 -0.01306,0.01 -0.237654,0.1471 -0.25,0.1563 -0.01235,0.01 -0.207206,0.1773 -0.21875,0.1875 -0.01058,0.01 -0.153531,0.123 -0.1875,0.1562 l 0,0.031 -3.5625,3.5313 -3.53125,-3.5313 -0.03125,-0.031 c -0.05116,-0.05 -0.23757,-0.1767 -0.25,-0.1874 -0.01418,-0.012 -0.234668,-0.2081 -0.25,-0.2188 -0.01533,-0.011 -0.296165,-0.1783 -0.3125,-0.1875 -0.01634,-0.01 -0.295328,-0.1488 -0.3125,-0.1563 -0.01717,-0.01 -0.294665,-0.1192 -0.3125,-0.125 -0.01784,-0.01 -0.325432,-0.09 -0.34375,-0.094 -0.01832,-0 -0.325135,-0.061 -0.34375,-0.062 -0.01862,-0 -0.325026,10e-5 -0.34375,0 a 1.4422629,1.4422629 0 0 0 -0.15625,0 z" />
  </g>
</svg>
